<svg width="1718" height="420" viewBox="0 0 1718 420" fill="none" xmlns="http://www.w3.org/2000/svg">
<path d="M483.278 347V68.1259H653.391V92.8262H509.97V186.05H627.496V210.75H509.97V322.3H657.773V347H483.278ZM680.099 243.418V221.108H791.648V243.418H680.099ZM954.528 350.187C886.403 350.187 821.067 304.372 821.067 207.563C821.067 110.754 886.802 64.9388 954.528 64.9388C1012.3 64.9388 1056.12 98.0053 1069.27 150.593L1042.97 156.569C1033.41 113.941 1001.54 89.639 954.528 89.639C892.778 89.639 848.955 131.47 848.955 207.563C848.955 283.656 892.778 325.487 954.528 325.487C1001.54 325.487 1031.82 301.583 1042.97 259.752L1069.27 264.931C1054.92 316.722 1012.69 350.187 954.528 350.187ZM1237.02 350.187C1158.54 350.187 1101.96 290.428 1101.96 207.563C1101.96 124.697 1158.54 64.9388 1237.02 64.9388C1315.5 64.9388 1372.47 124.697 1372.47 207.563C1372.47 290.428 1315.5 350.187 1237.02 350.187ZM1237.02 325.487C1299.57 325.487 1344.58 276.086 1344.58 207.563C1344.58 139.04 1299.57 89.639 1237.02 89.639C1174.87 89.639 1129.85 139.04 1129.85 207.563C1129.85 276.086 1174.87 325.487 1237.02 325.487ZM1420.12 347V68.1259H1454.78L1553.58 307.559L1652.38 68.1259H1687.04V347H1659.55V119.12L1565.93 347H1541.23L1447.61 119.12V347H1420.12Z" fill="#1D1D1D"/>
<mask id="mask0_12_2" style="mask-type:luminance" maskUnits="userSpaceOnUse" x="0" y="0" width="420" height="420">
<path d="M0 0H420V420H0V0Z" fill="white"/>
</mask>
<g mask="url(#mask0_12_2)">
<path d="M0 0V420H420V0H0ZM13.314 13.314H201.411L13.314 258.447V13.314ZM208.299 406.686H13.314V284.718H208.299V406.686ZM208.299 271.394H20.202L208.299 26.271V271.394ZM406.686 406.686H221.624V284.718H406.686V406.686ZM406.686 271.394H221.624V13.314H406.686V271.394ZM262.941 213.255C266.668 217.381 270.9 221.025 275.53 224.102C285.632 231.036 297.624 234.691 309.876 234.57C317.446 234.57 324.964 233.31 332.104 230.801C338.841 228.343 345.069 224.67 350.48 219.964C355.992 215.117 360.433 209.174 363.52 202.514C366.922 195.117 368.615 187.05 368.476 178.909C368.625 170.994 366.993 163.146 363.699 155.946C360.686 149.764 356.399 144.289 351.12 139.881C345.94 135.79 340.059 132.677 333.764 130.693C328.28 128.786 322.56 127.641 316.764 127.292L363.426 69.615V63.735H264.411V77.238H339.822L293.895 134.274V139.881H307.766C319.987 139.139 332.071 142.788 341.838 150.171C345.787 153.692 348.901 158.05 350.952 162.927C353.002 167.805 353.939 173.078 353.693 178.363C353.76 184.272 352.669 190.137 350.48 195.626C348.395 200.609 345.261 205.086 341.292 208.751C337.353 212.515 332.702 215.453 327.611 217.392C322.025 219.492 316.113 220.552 310.159 220.51C300.234 220.628 290.525 217.608 282.418 211.88C278.779 209.269 275.505 206.183 272.685 202.703C269.92 199.507 267.373 196.129 265.062 192.591V191.856L254.131 199.762L254.593 200.497C257.05 204.96 259.843 209.223 262.951 213.266L262.941 213.255Z" fill="#1D1D1D"/>
</g>
</svg>
